<?xml version="1.0" encoding="UTF-8" standalone="no"?>
<svg
   width="1024.0px"
   height="1024.0px"
   viewBox="0 0 1024.0 1024.0"
   version="1.1"
   id="SVGRoot"
   sodipodi:docname="Patio-icon.svg"
   inkscape:version="1.2 (dc2aeda, 2022-05-15)"
   inkscape:export-filename="48.png"
   inkscape:export-xdpi="4.5"
   inkscape:export-ydpi="4.5"
   xmlns:inkscape="http://www.inkscape.org/namespaces/inkscape"
   xmlns:sodipodi="http://sodipodi.sourceforge.net/DTD/sodipodi-0.dtd"
   xmlns="http://www.w3.org/2000/svg"
   xmlns:svg="http://www.w3.org/2000/svg">
  <sodipodi:namedview
     id="namedview1079"
     pagecolor="#212121"
     bordercolor="#666666"
     borderopacity="1.0"
     inkscape:showpageshadow="2"
     inkscape:pageopacity="1"
     inkscape:pagecheckerboard="0"
     inkscape:deskcolor="#d1d1d1"
     inkscape:document-units="px"
     showgrid="true"
     inkscape:zoom="0.28338005"
     inkscape:cx="-222.31628"
     inkscape:cy="299.95054"
     inkscape:window-width="1920"
     inkscape:window-height="1060"
     inkscape:window-x="0"
     inkscape:window-y="0"
     inkscape:window-maximized="1"
     inkscape:current-layer="layer1">
    <inkscape:grid
       type="xygrid"
       id="grid1202" />
  </sodipodi:namedview>
  <defs
     id="defs1074" />
  <g
     inkscape:label="Layer 1"
     inkscape:groupmode="layer"
     id="layer1">
    <path
       id="path1641"
       style="fill:#b2b2b2;fill-opacity:1;stroke:#e2e2e2;stroke-width:79.5276;stroke-dasharray:none;stroke-opacity:1"
       d="m 470.37957,107.79602 c -95.01896,16.23692 -201.82802,44.97296 -269.99553,112.12638 -22.65949,22.62623 -33.98202,47.19448 -33.98202,73.69924 0,38.1412 27.4308,64.98856 63.68642,94.07935 32.37069,26.50476 71.2621,40.4531 110.75456,46.27144 h 1.94823 c 4.5319,1.29247 6.7964,0.33638 6.7964,-2.89612 0,-2.58605 -1.91718,-4.19478 -5.80078,-4.84124 -8.41661,-1.9387 -15.68866,-3.896 -21.77448,-5.83537 -6.21503,-1.93871 -11.26713,-3.54833 -15.15116,-4.84123 -23.95698,-9.05065 -46.34188,-20.43306 -61.23239,-38.53409 -16.83299,-20.68685 -27.3407,-41.96109 -27.3407,-67.17337 0,-30.38349 5.06879,-52.7842 29.67053,-77.35003 146.60417,-110.61891 335.98363,-142.944565 499.16984,-100.8449 88.51493,24.38421 189.67332,91.98671 191.33862,185.22053 0,74.34304 -55.04392,127.69736 -165.10538,160.02021 -34.96057,9.69709 -67.31687,16.78489 -97.09791,21.31009 -29.78125,4.5263 -57.65153,6.78636 -83.5483,6.78636 H 577.1747 c 40.53361,-87.22323 68.47298,-91.14888 86.81628,-178.92238 4.53213,-20.04041 6.79641,-33.30306 6.79641,-39.76741 0,-9.05064 -5.83536,-13.57272 -17.48882,-13.57272 -20.07005,0 -32.69916,9.69684 -37.87825,29.09057 -16.81971,81.79368 -69.12156,163.98796 -96.51308,218.1281 -68.18873,124.82 -174.76934,312.9918 -319.47494,316.71186 -40.13987,0 -70.57963,-14.56685 -91.29709,-43.65744 -19.422648,-25.21228 -29.133634,-58.17254 -29.133634,-98.89956 3.673651,-69.18855 77.256584,-197.80715 141.111904,-95.57442 3.88449,4.52519 6.80217,10.65624 8.74441,18.41396 1.94158,-1.29248 2.90041,-3.55408 2.90041,-6.78637 0,-14.86852 -6.79353,-25.8698 -20.38922,-32.98104 -110.9356,-54.61634 -163.784955,28.53522 -166.349748,102.36078 0,50.42433 14.240224,90.82005 42.726658,121.204 28.48643,31.02996 66.67787,46.55356 114.58672,46.55356 139.19486,0 261.86904,-109.23027 368.04559,-327.73441 73.80585,1.93871 143.08999,-6.80074 207.83181,-26.19468 55.67804,-16.80789 101.66439,-40.07151 137.91978,-69.80876 47.26166,-38.14121 70.86445,-81.14623 70.86445,-128.9845 -13.38875,-115.81272 -122.64841,-160.93656 -214.5859,-182.32422 -22.65971,-4.52521 -46.00096,-8.04765 -69.95549,-10.63347 -77.39664,-7.418021 -159.0824,-3.853078 -232.07317,6.1813 z"
       sodipodi:nodetypes="ccscccsccccscccccsccsscccccccscccscccccccc" />
  </g>
</svg>
